<svg xmlns="http://www.w3.org/2000/svg" viewBox="0 0 128 128">
  <path fill="#00758F" d="M116.948 97.807c-6.863-.187-12.104.452-16.585 2.341-1.273.537-3.305.552-3.513 2.147.7.733.807 1.829 1.365 2.731 1.07 1.73 2.876 4.052 4.488 5.268 1.762 1.33 3.577 2.751 5.465 3.902 3.358 2.047 7.107 3.217 10.34 5.268 1.906 1.21 3.799 2.733 5.658 4.097.92.675 1.537 1.724 2.732 2.147v-.194c-.628-.79-.79-1.898-1.366-2.731l-2.537-2.537c-2.48-3.292-5.629-6.184-8.976-8.585-2.669-1.916-8.642-4.504-9.755-7.609l-.195-.195c1.892-.214 4.107-.898 5.854-1.367 2.934-.786 5.556-.583 8.585-1.365l4.097-1.171v-.78c-1.531-1.571-2.623-3.651-4.292-5.073-4.37-3.72-9.138-7.437-14.048-10.537-2.724-1.718-6.089-2.835-8.976-4.292-.971-.491-2.677-.746-3.318-1.562-1.517-1.932-2.342-4.382-3.511-6.633-2.449-4.717-4.854-9.868-7.024-14.831-1.48-3.384-2.447-6.72-4.293-9.756-8.86-14.567-18.396-23.358-33.169-32-3.144-1.838-6.929-2.563-10.929-3.513l-6.439-.391c-1.308-.551-2.671-2.164-3.902-2.927C19.68.62 4.965-7.67 1.167 7.502-.672 14.849.911 22.387 3.515 28.05c1.778 3.865 6.019 7.889 8.198 12.195 1.434 2.839 2.114 5.69 3.512 8.585 2.151 4.452 4.244 9.459 6.828 13.462 1.358 2.103 2.79 4.32 4.29 6.244 .927 1.187 2.541 1.714 2.927 3.513-1.646 2.302-1.744 5.878-2.73 8.78-4.443 13.063-2.77 29.294 3.708 38.953 1.986 2.96 6.669 9.344 13.073 6.828 5.601-2.204 4.354-9.028 5.854-15.027.34-1.358.129-2.358.78-3.317v.194l4.683 9.366c3.467 5.575 9.622 11.398 14.832 15.222 2.701 1.984 4.838 5.418 8.195 6.438v-.195h-.194c-.68-1.052-1.74-1.488-2.731-2.341-2.348-2.024-4.958-4.538-6.833-6.829-5.28-6.449-9.94-13.531-14.05-20.878-1.96-3.506-3.666-7.369-5.268-10.927-.617-1.371-.612-3.442-1.756-4.097-1.627 2.521-4.027 4.56-5.072 7.803-1.67 5.181-1.884 11.506-2.536 17.976-.351.12-.195.038-.39.194-3.944-.952-5.328-5.021-6.634-8.39-3.297-8.503-3.91-22.206-.78-32.001 .81-2.535 4.477-10.522 3.122-12.976-1.066-2.267-4.568-3.57-6.439-5.073-2.263-1.818-4.689-4.197-6.438-6.438-4.63-5.932-8.715-12.463-12.391-19.513-1.724-3.306-3.215-7.052-4.681-10.341-1.586-3.56-1.392-7.115-3.512-10.731C4.665 13.21 2.06 10.55 1.167 6.52c-.242-.799-.396-2.077-.195-3.122.077-.805.178-.878.587-1.561.348-.584 .358-.59 1.171-.976 3.089-.855 7.261.92 10.341 2.341 4.123 1.903 7.508 3.653 10.927 6.247 1.633 1.239 3.29 3.617 5.268 4.291h2.342c3.663.841 7.757.194 11.123 1.171 5.946 1.726 11.275 4.291 16.002 7.022 14.39 8.322 26.162 20.177 34.149 34.344 1.285 2.278 1.842 4.446 2.927 6.829 2.185 4.801 4.932 9.723 7.027 14.437 2.093 4.711 4.138 9.457 7.214 13.267 1.613 1.998 7.852 3.072 10.731 4.194 2.018.786 5.291 1.595 7.124 2.732 3.501 2.174 6.879 4.68 10.147 7.12 1.632 1.219 6.666 3.896 6.83 6.049z"/>
  <path fill="#F29111" d="M64.016 26.293c-2.215.015-3.773.252-5.466.587-.389.077-.989.058-1.171.39-.477.956.692 1.707 1.171 2.146 1.219 1.118 2.569 1.848 3.901 2.731 1.024.68 2.048 1.457 3.123 1.951.614-.354.852-.924 1.171-1.56.774-1.552.657-3.124.587-5.074-.252-.246-.292-.68-.585-.975-.86-.862-2.892-.98-4.731-.196z"/>
</svg>
