<svg xmlns="http://www.w3.org/2000/svg" viewBox="0 0 24 24" fill="#FF6C37">
  <path d="M13.527.099C6.955-.744.942 3.9.099 10.473c-.843 6.572 3.8 12.584 10.373 13.428 6.573.843 12.587-3.801 13.428-10.374C24.744 6.955 20.101.943 13.527.099zm2.471 7.485a.855.855 0 0 0-.593.25l-4.453 4.453-.307-.307-.643-.643c4.389-4.376 5.18-4.418 5.996-3.753zm-4.863 4.861l4.44-4.44a.62.62 0 1 1 .847.903l-4.699 4.125-.588-.588zm.33.694l-1.1.964a.946.946 0 0 1-1.25-.068l-.252-.252-.253-.253a.946.946 0 0 1-.068-1.25l.964-1.1.929.929 1.03 1.03zm-1.925-.964l-.658.576a.946.946 0 0 0 .068 1.25l.253.252.252.253c.336.336.896.362 1.25.068l.576-.658-1.741-1.741z"/>
</svg>
