<svg width="30" height="42" viewBox="0 0 30 42" fill="none" xmlns="http://www.w3.org/2000/svg">
<path d="M10.7288 11.9801C5.92469 12.3352 1.84068 12.6618 1.64866 12.7C1.11028 12.7959 0.620516 13.1607 0.390216 13.6408L0.188477 14.0633L0.207921 24.1322L0.236481 34.2011L0.543952 34.8251C0.717132 35.1705 1.88929 36.7833 3.16718 38.4434C5.69439 41.7163 5.87669 41.899 6.83738 41.9949C7.1163 42.0235 9.21087 41.9276 11.4786 41.7934C13.7561 41.6496 17.4068 41.4286 19.598 41.3042C28.9565 40.7366 28.4758 40.7846 29.0136 40.3239C29.6862 39.7673 29.6382 40.679 29.6668 28.4413C29.6862 18.0653 29.6765 17.3842 29.5228 17.0674C29.3405 16.7123 29.0136 16.4628 24.7473 13.4679C21.8937 11.4714 21.692 11.3658 20.4135 11.3464C19.8855 11.3276 15.5231 11.6153 10.7288 11.9801ZM21.5285 13.2949C21.932 13.477 24.8822 15.531 25.3142 15.925C25.4297 16.0403 25.4679 16.1362 25.4102 16.1939C25.2759 16.3092 7.01907 17.3939 6.49102 17.3168C6.251 17.2786 5.89553 17.1347 5.69379 17C4.85766 16.4336 2.78253 14.7347 2.78253 14.6102C2.78253 14.2837 2.71508 14.2837 10.854 13.6985C12.4107 13.5929 14.9665 13.4011 16.5233 13.276C19.8952 13.0071 20.9045 13.0169 21.5285 13.2949ZM27.3322 18.5454C27.4665 18.6795 27.582 18.9387 27.6202 19.1882C27.6488 19.4189 27.6682 23.7188 27.6488 28.729C27.6202 37.329 27.6105 37.8668 27.4471 38.1162C27.351 38.2698 27.159 38.4331 27.0144 38.481C26.6115 38.6443 7.48089 39.729 7.08713 39.6137C6.90483 39.5657 6.65448 39.4122 6.52019 39.278L6.28928 39.0285L6.26072 29.7567C6.24128 23.249 6.26072 20.3694 6.3379 20.1102C6.39562 19.9184 6.53964 19.6878 6.66481 19.6113C6.83799 19.496 7.97187 19.4 11.873 19.17C14.6117 19.0164 18.8488 18.7572 21.28 18.6134C27.063 18.2577 27.0442 18.2577 27.3322 18.5454Z" fill="#12263A"/>
<path d="M6.0857 17.9533L2.79427 14.6153L2.31427 14.2066L5.74284 13.5254L13.6971 12.8442H21.6514L26.2457 16.5908L20.0057 17.1358L6.0857 17.9533Z" fill="#12263A" stroke="#12263A"/>
<path d="M11.6088 13.524C11.7044 13.6152 11.7874 13.639 11.8526 13.643C11.9283 13.6477 12.0186 13.6265 12.1035 13.5723C12.1884 13.5181 12.2452 13.4452 12.2724 13.3749C12.2958 13.3143 12.3084 13.2294 12.2646 13.1051L9.79714 6.11806C9.71118 5.87463 9.4193 5.77445 9.20143 5.9136L6.29443 7.77023C6.07656 7.90938 6.04714 8.21476 6.23439 8.3935L11.6088 13.524Z" stroke="#12263A" stroke-width="2" stroke-linecap="round" stroke-linejoin="round"/>
<path d="M14.0576 14.31C13.962 14.4013 13.879 14.4251 13.8138 14.4291C13.7381 14.4337 13.6478 14.4126 13.5629 14.3584C13.478 14.3042 13.4212 14.2313 13.394 14.1609C13.3706 14.1004 13.358 14.0155 13.4018 13.8912L17.6266 1.92783C17.7126 1.6844 18.0044 1.58422 18.2223 1.72337L23.1997 4.90233C23.4176 5.04148 23.447 5.34686 23.2598 5.5256L14.0576 14.31Z" stroke="#12263A" stroke-width="2" stroke-linecap="round" stroke-linejoin="round"/>
<path d="M12.1381 22.6876C12.3113 22.5917 13.1662 22.4958 14.723 22.3902C14.9557 22.3743 15.1812 22.3593 15.3945 22.3456V26.4498V30.8748C15.3945 35.0024 15.4042 35.2998 15.5677 35.3477C15.6538 35.3671 16.0658 35.4628 16.4784 35.5585L16.4803 35.559C16.8844 35.6549 17.2205 35.7702 17.2205 35.8084C17.2205 35.8564 17.1536 36.0197 17.0764 36.1733C16.817 36.6819 16.5387 36.7493 14.0692 36.8932C12.8205 36.9696 11.7346 37.037 11.6769 37.037C11.5231 37.037 11.5134 36.7396 11.6671 36.413C11.7534 36.2212 11.9266 36.1253 12.4358 35.9717L13.0891 35.7702V23.9835H12.6856C11.9169 23.9835 11.5517 23.8779 11.5517 23.6764C11.5517 23.3401 11.8592 22.8315 12.1381 22.6876Z" fill="#12263A"/>
<path d="M20.186 22.7608C19.3806 22.3605 18.439 22.1939 17.2774 22.2077C16.0988 22.2217 14.3104 22.4828 14.3104 22.4828L14.4624 24.6924C14.4624 24.6924 16.169 24.3018 17.2774 24.326C18.1724 24.3456 18.9311 24.4044 19.4828 24.8974C20.0617 25.4146 20.4257 26.1298 20.3104 26.9663C20.208 27.709 19.7799 28.2422 19.2069 28.656C18.4547 29.1992 17.2528 29.4158 17.2528 29.4158L14.4385 29.8292L14.4284 32.0247L17.2434 31.5894C17.2434 31.5894 20.1392 30.9558 21.1035 30.1043C22.0748 29.2457 22.5173 28.3456 22.6207 27.0698C22.6967 26.1333 22.4822 25.1411 22.047 24.4292C21.6188 23.7174 20.9984 23.1613 20.186 22.7608Z" fill="#12263A" stroke="#12263A" stroke-width="0.2"/>
</svg>
